<?xml version="1.0" encoding="UTF-8" standalone="no"?>
<!DOCTYPE svg PUBLIC "-//W3C//DTD SVG 1.1//EN"
 "http://www.w3.org/Graphics/SVG/1.1/DTD/svg11.dtd">
<!-- Generated by graphviz version 2.38.0 (20140413.2041)
 -->
<!-- Title: topology_20200506&#45;034913 Pages: 1 -->
<svg width="458pt" height="386pt"
 viewBox="0.00 0.00 458.00 386.00" xmlns="http://www.w3.org/2000/svg" xmlns:xlink="http://www.w3.org/1999/xlink">
<g id="graph0" class="graph" transform="scale(1 1) rotate(0) translate(4 382)">
<title>topology_20200506&#45;034913</title>
<polygon fill="white" stroke="none" points="-4,4 -4,-382 454,-382 454,4 -4,4"/>
<text text-anchor="middle" x="225" y="-6.6" font-family="Arial" font-size="8.00">Graph topology_20200506&#45;034913</text>
<!-- test&#45;sw -->
<g id="node1" class="node"><title>test&#45;sw</title>
<polygon fill="none" stroke="none" points="450,-118 396,-118 396,-82 450,-82 450,-118"/>
<image xlink:href="../switch.png" width="54px" height="36px" preserveAspectRatio="xMinYMin meet" x="396" y="-118"/>
<text text-anchor="middle" x="423" y="-84.4" font-family="Arial" font-size="7.00" fill="#ff2000">test&#45;sw</text>
</g>
<!-- T9D&#45;ACC1 -->
<g id="node2" class="node"><title>T9D&#45;ACC1</title>
<polygon fill="none" stroke="none" points="252,-378 198,-378 198,-342 252,-342 252,-378"/>
<image xlink:href="../switch.png" width="54px" height="36px" preserveAspectRatio="xMinYMin meet" x="198" y="-378"/>
<text text-anchor="middle" x="225" y="-344.4" font-family="Arial" font-size="7.00" fill="#ff2000">T9D&#45;ACC1</text>
</g>
<!-- T9D&#45;ACC1&#45;&#45;test&#45;sw -->
<g id="edge3" class="edge"><title>T9D&#45;ACC1&#45;&#45;test&#45;sw</title>
<path fill="none" stroke="#9f9f9f" d="M240.982,-341.829C244.624,-337.338 248.482,-332.519 252,-328 311.904,-251.053 380.56,-157.13 408.81,-118.222"/>
<text text-anchor="middle" x="402.81" y="-119.022" font-family="Arial" font-size="4.00" fill="blue">Gi0/10</text>
<text text-anchor="middle" x="233.482" y="-338.629" font-family="Arial" font-size="4.00" fill="blue">Gi1/0/24</text>
</g>
<!-- T9D&#45;CSW1 -->
<g id="node3" class="node"><title>T9D&#45;CSW1</title>
<polygon fill="none" stroke="none" points="54,-248 0,-248 0,-212 54,-212 54,-248"/>
<image xlink:href="../coreswitch.png" width="54px" height="36px" preserveAspectRatio="xMinYMin meet" x="0" y="-248"/>
<text text-anchor="middle" x="27" y="-214.4" font-family="Arial" font-size="7.00" fill="#ff2000">T9D&#45;CSW1</text>
</g>
<!-- T9D&#45;CSW1&#45;&#45;T9D&#45;ACC1 -->
<g id="edge4" class="edge"><title>T9D&#45;CSW1&#45;&#45;T9D&#45;ACC1</title>
<path fill="none" stroke="#9f9f9f" d="M54.0273,-239.859C94.5348,-262.27 171.606,-313.743 206.298,-341.917"/>
<text text-anchor="middle" x="198.798" y="-338.717" font-family="Arial" font-size="4.00" fill="blue">Gi1/0/25</text>
<text text-anchor="middle" x="61.5273" y="-236.659" font-family="Arial" font-size="4.00" fill="blue">Gi1/0/13</text>
</g>
<!-- T9D&#45;CSW1&#45;&#45;T9D&#45;ACC1 -->
<g id="edge5" class="edge"><title>T9D&#45;CSW1&#45;&#45;T9D&#45;ACC1</title>
<path fill="none" stroke="#9f9f9f" d="M45.3937,-248.282C79.8711,-276.719 157.056,-328.318 197.745,-350.546"/>
<text text-anchor="middle" x="190.245" y="-347.346" font-family="Arial" font-size="4.00" fill="blue">Gi1/0/26</text>
<text text-anchor="middle" x="37.8937" y="-249.082" font-family="Arial" font-size="4.00" fill="blue">Gi2/0/13</text>
</g>
<!-- T9D&#45;RT2 -->
<g id="node6" class="node"><title>T9D&#45;RT2</title>
<polygon fill="none" stroke="none" points="252,-313 198,-313 198,-277 252,-277 252,-313"/>
<image xlink:href="../router.png" width="54px" height="36px" preserveAspectRatio="xMinYMin meet" x="198" y="-313"/>
<text text-anchor="middle" x="225" y="-279.4" font-family="Arial" font-size="7.00" fill="#ff2000">T9D&#45;RT2</text>
</g>
<!-- T9D&#45;CSW1&#45;&#45;T9D&#45;RT2 -->
<g id="edge6" class="edge"><title>T9D&#45;CSW1&#45;&#45;T9D&#45;RT2</title>
<path fill="none" stroke="#9f9f9f" d="M54.0273,-231.227C91.515,-239.536 160.318,-262.349 197.865,-278.917"/>
<text text-anchor="middle" x="191.365" y="-275.717" font-family="Arial" font-size="4.00" fill="blue">Gi0/0/1</text>
<text text-anchor="middle" x="60.5273" y="-228.027" font-family="Arial" font-size="4.00" fill="blue">Gi2/0/5</text>
</g>
<!-- T9D&#45;CSW1&#45;&#45;T9D&#45;RT2 -->
<g id="edge7" class="edge"><title>T9D&#45;CSW1&#45;&#45;T9D&#45;RT2</title>
<path fill="none" stroke="#9f9f9f" d="M54.0273,-246.565C91.515,-263.415 160.318,-286.236 197.865,-294.279"/>
<text text-anchor="middle" x="191.365" y="-291.079" font-family="Arial" font-size="4.00" fill="blue">Gi0/0/0</text>
<text text-anchor="middle" x="60.5273" y="-243.365" font-family="Arial" font-size="4.00" fill="blue">Gi1/0/5</text>
</g>
<!-- T9D&#45;VGW1 -->
<g id="node7" class="node"><title>T9D&#45;VGW1</title>
<polygon fill="none" stroke="none" points="252,-248 198,-248 198,-212 252,-212 252,-248"/>
<image xlink:href="../router.png" width="54px" height="36px" preserveAspectRatio="xMinYMin meet" x="198" y="-248"/>
<text text-anchor="middle" x="225" y="-214.4" font-family="Arial" font-size="7.00" fill="#ff2000">T9D&#45;VGW1</text>
</g>
<!-- T9D&#45;CSW1&#45;&#45;T9D&#45;VGW1 -->
<g id="edge8" class="edge"><title>T9D&#45;CSW1&#45;&#45;T9D&#45;VGW1</title>
<path fill="none" stroke="#9f9f9f" d="M30.269,-211.987C50.6012,-135.052 201.198,-135.004 221.693,-211.844"/>
<text text-anchor="middle" x="213.193" y="-208.644" font-family="Arial" font-size="4.00" fill="blue">Gi0/0.442</text>
<text text-anchor="middle" x="23.769" y="-208.787" font-family="Arial" font-size="4.00" fill="blue">Gi1/0/8</text>
</g>
<!-- T9D&#45;CSW1&#45;&#45;T9D&#45;VGW1 -->
<g id="edge9" class="edge"><title>T9D&#45;CSW1&#45;&#45;T9D&#45;VGW1</title>
<path fill="none" stroke="#9f9f9f" d="M32.6517,-211.992C59.3183,-164.029 192.523,-164.003 219.305,-211.914"/>
<text text-anchor="middle" x="227.805" y="-209.714" font-family="Arial" font-size="4.00" fill="blue">Gi0/1.443</text>
<text text-anchor="middle" x="39.1517" y="-208.792" font-family="Arial" font-size="4.00" fill="blue">Gi2/0/8</text>
</g>
<!-- T9D&#45;CSW1&#45;&#45;T9D&#45;VGW1 -->
<g id="edge10" class="edge"><title>T9D&#45;CSW1&#45;&#45;T9D&#45;VGW1</title>
<path fill="none" stroke="#9f9f9f" d="M42.7319,-211.972C79.0551,-193.039 172.595,-193.01 209.097,-211.883"/>
<text text-anchor="middle" x="200.597" y="-208.683" font-family="Arial" font-size="4.00" fill="blue">Gi0/1.442</text>
<text text-anchor="middle" x="49.2319" y="-209.772" font-family="Arial" font-size="4.00" fill="blue">Gi2/0/8</text>
</g>
<!-- T9D&#45;CSW1&#45;&#45;T9D&#45;VGW1 -->
<g id="edge11" class="edge"><title>T9D&#45;CSW1&#45;&#45;T9D&#45;VGW1</title>
<path fill="none" stroke="#9f9f9f" d="M54.0273,-222.596C91.515,-218.472 160.318,-218.468 197.865,-222.584"/>
<text text-anchor="middle" x="189.365" y="-219.384" font-family="Arial" font-size="4.00" fill="blue">Gi0/0.443</text>
<text text-anchor="middle" x="60.5273" y="-219.396" font-family="Arial" font-size="4.00" fill="blue">Gi1/0/8</text>
</g>
<!-- T9D&#45;CSW1&#45;&#45;T9D&#45;VGW1 -->
<g id="edge12" class="edge"><title>T9D&#45;CSW1&#45;&#45;T9D&#45;VGW1</title>
<path fill="none" stroke="#9f9f9f" d="M54.0273,-237.933C91.515,-242.351 160.318,-242.356 197.865,-237.946"/>
<text text-anchor="middle" x="189.365" y="-234.746" font-family="Arial" font-size="4.00" fill="blue">Gi0/1.441</text>
<text text-anchor="middle" x="60.5273" y="-234.733" font-family="Arial" font-size="4.00" fill="blue">Gi2/0/8</text>
</g>
<!-- T9D&#45;CSW1&#45;&#45;T9D&#45;VGW1 -->
<g id="edge13" class="edge"><title>T9D&#45;CSW1&#45;&#45;T9D&#45;VGW1</title>
<path fill="none" stroke="#9f9f9f" d="M42.0958,-248.103C78.2593,-267.989 174.009,-267.966 210.032,-248.033"/>
<text text-anchor="middle" x="201.532" y="-248.833" font-family="Arial" font-size="4.00" fill="blue">Gi0/0.441</text>
<text text-anchor="middle" x="48.5958" y="-248.903" font-family="Arial" font-size="4.00" fill="blue">Gi1/0/8</text>
</g>
<!-- T9D&#45;CSW1&#45;&#45;T9D&#45;VGW1 -->
<g id="edge14" class="edge"><title>T9D&#45;CSW1&#45;&#45;T9D&#45;VGW1</title>
<path fill="none" stroke="#9f9f9f" d="M32.6517,-248.258C59.3762,-296.993 193.102,-296.914 219.478,-248.02"/>
<text text-anchor="middle" x="224.478" y="-248.82" font-family="Arial" font-size="4.00" fill="blue">Gi0/0</text>
<text text-anchor="middle" x="26.1517" y="-249.058" font-family="Arial" font-size="4.00" fill="blue">Gi1/0/8</text>
</g>
<!-- T9D&#45;CSW1&#45;&#45;T9D&#45;VGW1 -->
<g id="edge15" class="edge"><title>T9D&#45;CSW1&#45;&#45;T9D&#45;VGW1</title>
<path fill="none" stroke="#9f9f9f" d="M30.269,-248.191C50.6012,-325.888 201.198,-325.936 221.693,-248.336"/>
<text text-anchor="middle" x="216.693" y="-249.136" font-family="Arial" font-size="4.00" fill="blue">Gi0/1</text>
<text text-anchor="middle" x="23.769" y="-248.991" font-family="Arial" font-size="4.00" fill="blue">Gi2/0/8</text>
</g>
<!-- T9D&#45;RT1 -->
<g id="node8" class="node"><title>T9D&#45;RT1</title>
<polygon fill="none" stroke="none" points="252,-183 198,-183 198,-147 252,-147 252,-183"/>
<image xlink:href="../router.png" width="54px" height="36px" preserveAspectRatio="xMinYMin meet" x="198" y="-183"/>
<text text-anchor="middle" x="225" y="-149.4" font-family="Arial" font-size="7.00" fill="#ff2000">T9D&#45;RT1</text>
</g>
<!-- T9D&#45;CSW1&#45;&#45;T9D&#45;RT1 -->
<g id="edge16" class="edge"><title>T9D&#45;CSW1&#45;&#45;T9D&#45;RT1</title>
<path fill="none" stroke="#9f9f9f" d="M54.0273,-213.964C91.515,-197.408 160.318,-174.587 197.865,-166.251"/>
<text text-anchor="middle" x="191.365" y="-163.051" font-family="Arial" font-size="4.00" fill="blue">Gi0/0/0</text>
<text text-anchor="middle" x="60.5273" y="-214.764" font-family="Arial" font-size="4.00" fill="blue">Gi1/0/4</text>
</g>
<!-- T9D&#45;CSW1&#45;&#45;T9D&#45;RT1 -->
<g id="edge17" class="edge"><title>T9D&#45;CSW1&#45;&#45;T9D&#45;RT1</title>
<path fill="none" stroke="#9f9f9f" d="M54.0273,-229.302C91.515,-221.288 160.318,-198.475 197.865,-181.613"/>
<text text-anchor="middle" x="191.365" y="-178.413" font-family="Arial" font-size="4.00" fill="blue">Gi0/0/1</text>
<text text-anchor="middle" x="60.5273" y="-226.102" font-family="Arial" font-size="4.00" fill="blue">Gi2/0/4</text>
</g>
<!-- SEP00AA6E0E0DEC -->
<g id="node4" class="node"><title>SEP00AA6E0E0DEC</title>
<polygon fill="none" stroke="none" points="252,-118 198,-118 198,-82 252,-82 252,-118"/>
<image xlink:href="../phone.png" width="54px" height="36px" preserveAspectRatio="xMinYMin meet" x="198" y="-118"/>
<text text-anchor="middle" x="225" y="-84.4" font-family="Arial" font-size="7.00" fill="#ff2000">SEP00AA6E0E0DEC</text>
</g>
<!-- SEP00AA6E0E0DEC&#45;&#45;test&#45;sw -->
<g id="edge1" class="edge"><title>SEP00AA6E0E0DEC&#45;&#45;test&#45;sw</title>
<path fill="none" stroke="#9f9f9f" d="M252.027,-100C289.515,-100 358.318,-100 395.865,-100"/>
<text text-anchor="middle" x="390.865" y="-96.8" font-family="Arial" font-size="4.00" fill="blue">Gi0/3</text>
<text text-anchor="middle" x="254.527" y="-96.8" font-family="Arial" font-size="4.00" fill="blue">P1</text>
</g>
<!-- SEP700B4F7A2019 -->
<g id="node5" class="node"><title>SEP700B4F7A2019</title>
<polygon fill="none" stroke="none" points="252,-53 198,-53 198,-17 252,-17 252,-53"/>
<image xlink:href="../phone.png" width="54px" height="36px" preserveAspectRatio="xMinYMin meet" x="198" y="-53"/>
<text text-anchor="middle" x="225" y="-19.4" font-family="Arial" font-size="7.00" fill="#ff2000">SEP700B4F7A2019</text>
</g>
<!-- SEP700B4F7A2019&#45;&#45;test&#45;sw -->
<g id="edge2" class="edge"><title>SEP700B4F7A2019&#45;&#45;test&#45;sw</title>
<path fill="none" stroke="#9f9f9f" d="M252.027,-43.6315C289.515,-56.0636 358.318,-78.8808 395.865,-91.3328"/>
<text text-anchor="middle" x="390.865" y="-88.1328" font-family="Arial" font-size="4.00" fill="blue">Gi0/2</text>
<text text-anchor="middle" x="254.527" y="-40.4315" font-family="Arial" font-size="4.00" fill="blue">P1</text>
</g>
</g>
</svg>
